# xmcd CD database file generated by Grip 2.96
# 
# Track frame offsets:
#       182
#       34042
#       65135
#       97950
#       132095
#       234897
# 
# Disc length: 3453 seconds
# 
# Revision: 0
# Processed by: cddbd v1.5.2PL0 Copyright (c) Steve Scherf et al.
# Submitted via: Grip 2.96
# 
DISCID=450d7b06
DTITLE=Wahe Guru Kaur Khalsa / Aquarian Sadhana
DYEAR=
DGENRE=
TTITLE0=Wah Yantee
TTITLE1=Mool Mantra
TTITLE2=Sat Siri Siri Akal
TTITLE3=Rake Rakhanhar
TTITLE4=Wahe Guru, Wahe Jio
TTITLE5=Guru Ram Das Chant
EXTD=
EXTT0=
EXTT1=
EXTT2=
EXTT3=
EXTT4=
EXTT5=
PLAYORDER=
.
